<?xml version="1.0" encoding="UTF-8" standalone="no"?>
<!DOCTYPE svg PUBLIC "-//W3C//DTD SVG 1.1//EN"
 "http://www.w3.org/Graphics/SVG/1.1/DTD/svg11.dtd">
<!-- Generated by graphviz version 2.50.0 (20211204.2007)
 -->
<!-- Title: G Pages: 1 -->
<svg width="4571pt" height="2951pt"
 viewBox="0.00 0.00 4570.60 2950.89" xmlns="http://www.w3.org/2000/svg" xmlns:xlink="http://www.w3.org/1999/xlink">
<g id="graph0" class="graph" transform="scale(1 1) rotate(0) translate(4 2946.89)">
<title>G</title>
<polygon fill="white" stroke="transparent" points="-4,4 -4,-2946.89 4566.6,-2946.89 4566.6,4 -4,4"/>
<!-- s1 -->
<g id="node1" class="node">
<title>s1</title>
<ellipse fill="#6c9ac3" stroke="#6c9ac3" cx="81.89" cy="-864.89" rx="81.79" ry="81.79"/>
<text text-anchor="middle" x="81.89" y="-861.19" font-family="Times,serif" font-size="14.00">((:S, :U), :Age1)</text>
</g>
<!-- t1 -->
<g id="node21" class="node">
<title>t1</title>
<polygon fill="#e28f41" stroke="#e28f41" points="399.79,-836.89 209.79,-836.89 209.79,-646.89 399.79,-646.89 399.79,-836.89"/>
<text text-anchor="middle" x="304.79" y="-738.19" font-family="Times,serif" font-size="14.00">((:inf, :UU), :Age1_Age1)</text>
</g>
<!-- s1&#45;&gt;t1 -->
<g id="edge52" class="edge">
<title>s1&#45;&gt;t1</title>
<path fill="none" stroke="black" d="M153.7,-825.46C168.71,-817.1 184.85,-808.12 200.78,-799.24"/>
<polygon fill="black" stroke="black" points="202.57,-802.26 209.6,-794.33 199.16,-796.14 202.57,-802.26"/>
<text text-anchor="middle" x="186.79" y="-810.69" font-family="Times,serif" font-size="14.00">1</text>
</g>
<!-- t2 -->
<g id="node22" class="node">
<title>t2</title>
<polygon fill="#e28f41" stroke="#e28f41" points="1710.16,-934.89 1522.16,-934.89 1522.16,-746.89 1710.16,-746.89 1710.16,-934.89"/>
<text text-anchor="middle" x="1616.16" y="-837.19" font-family="Times,serif" font-size="14.00">((:inf, :UV), :Age1_Age1)</text>
</g>
<!-- s1&#45;&gt;t2 -->
<g id="edge86" class="edge">
<title>s1&#45;&gt;t2</title>
<path fill="none" stroke="black" d="M163.94,-864.89C205.71,-864.89 257.48,-864.89 303.79,-864.89 303.79,-864.89 303.79,-864.89 979.97,-864.89 1167.73,-864.89 1386.49,-854.29 1512.1,-847.18"/>
<polygon fill="black" stroke="black" points="1512.31,-850.67 1522.1,-846.61 1511.91,-843.68 1512.31,-850.67"/>
<text text-anchor="middle" x="629.97" y="-868.69" font-family="Times,serif" font-size="14.00">1</text>
</g>
<!-- t5 -->
<g id="node25" class="node">
<title>t5</title>
<polygon fill="#e28f41" stroke="#e28f41" points="2583.54,-2736.89 2393.54,-2736.89 2393.54,-2546.89 2583.54,-2546.89 2583.54,-2736.89"/>
<text text-anchor="middle" x="2488.54" y="-2638.19" font-family="Times,serif" font-size="14.00">((:inf, :UU), :Age1_Age2)</text>
</g>
<!-- s1&#45;&gt;t5 -->
<g id="edge48" class="edge">
<title>s1&#45;&gt;t5</title>
<path fill="none" stroke="black" d="M85.67,-946.7C97.69,-1269.58 151.68,-2437.89 303.79,-2437.89 303.79,-2437.89 303.79,-2437.89 2053.85,-2437.89 2119.96,-2437.89 2300.91,-2408.78 2351.04,-2451.89 2381.97,-2478.49 2348.29,-2506.77 2369.04,-2541.89 2374.02,-2550.32 2379.98,-2558.37 2386.54,-2565.99"/>
<polygon fill="black" stroke="black" points="2383.98,-2568.38 2393.28,-2573.45 2389.17,-2563.68 2383.98,-2568.38"/>
<text text-anchor="middle" x="978.97" y="-2441.69" font-family="Times,serif" font-size="14.00">1</text>
</g>
<!-- t6 -->
<g id="node26" class="node">
<title>t6</title>
<polygon fill="#e28f41" stroke="#e28f41" points="3456.23,-297.89 3268.23,-297.89 3268.23,-109.89 3456.23,-109.89 3456.23,-297.89"/>
<text text-anchor="middle" x="3362.23" y="-200.19" font-family="Times,serif" font-size="14.00">((:inf, :UV), :Age1_Age2)</text>
</g>
<!-- s1&#45;&gt;t6 -->
<g id="edge51" class="edge">
<title>s1&#45;&gt;t6</title>
<path fill="none" stroke="black" d="M86.44,-782.92C97.97,-567.5 143.52,-1.89 303.79,-1.89 303.79,-1.89 303.79,-1.89 2926.88,-1.89 3061.04,-1.89 3107.17,13.75 3224.73,-50.89 3248.24,-63.81 3269.74,-82.39 3288.37,-102.17"/>
<polygon fill="black" stroke="black" points="3286.03,-104.8 3295.37,-109.8 3291.19,-100.07 3286.03,-104.8"/>
<text text-anchor="middle" x="1380.16" y="-5.69" font-family="Times,serif" font-size="14.00">1</text>
</g>
<!-- t27 -->
<g id="node47" class="node">
<title>t27</title>
<polygon fill="#e28f41" stroke="#e28f41" points="394.29,-1687.39 215.29,-1687.39 215.29,-1508.39 394.29,-1508.39 394.29,-1687.39"/>
<text text-anchor="middle" x="304.79" y="-1594.19" font-family="Times,serif" font-size="14.00">((:strata, :vac), :strata)</text>
</g>
<!-- s1&#45;&gt;t27 -->
<g id="edge37" class="edge">
<title>s1&#45;&gt;t27</title>
<path fill="none" stroke="black" d="M106.53,-943.33C146.98,-1077.54 229.38,-1350.98 273.8,-1498.4"/>
<polygon fill="black" stroke="black" points="270.57,-1499.79 276.81,-1508.36 277.27,-1497.77 270.57,-1499.79"/>
<text text-anchor="middle" x="186.79" y="-1212.69" font-family="Times,serif" font-size="14.00">1</text>
</g>
<!-- s2 -->
<g id="node2" class="node">
<title>s2</title>
<ellipse fill="#6c9ac3" stroke="#6c9ac3" cx="526.38" cy="-733.89" rx="79.09" ry="79.09"/>
<text text-anchor="middle" x="526.38" y="-730.19" font-family="Times,serif" font-size="14.00">((:I, :U), :Age1)</text>
</g>
<!-- s2&#45;&gt;t1 -->
<g id="edge59" class="edge">
<title>s2&#45;&gt;t1</title>
<path fill="none" stroke="black" d="M447.99,-720.89C441.17,-720.08 434.37,-719.39 427.79,-718.89 422,-718.45 416.09,-718.35 410.13,-718.54"/>
<polygon fill="black" stroke="black" points="409.88,-715.04 400.09,-719.1 410.27,-722.03 409.88,-715.04"/>
<text text-anchor="middle" x="422.79" y="-722.69" font-family="Times,serif" font-size="14.00">1</text>
</g>
<!-- t3 -->
<g id="node23" class="node">
<title>t3</title>
<polygon fill="#e28f41" stroke="#e28f41" points="851.47,-1121.89 663.47,-1121.89 663.47,-933.89 851.47,-933.89 851.47,-1121.89"/>
<text text-anchor="middle" x="757.47" y="-1024.19" font-family="Times,serif" font-size="14.00">((:inf, :VU), :Age1_Age1)</text>
</g>
<!-- s2&#45;&gt;t3 -->
<g id="edge27" class="edge">
<title>s2&#45;&gt;t3</title>
<path fill="none" stroke="black" d="M589.38,-782.33C605.17,-796.16 621.48,-811.85 634.97,-827.89 659.82,-857.43 682.96,-892.59 702.23,-925.13"/>
<polygon fill="black" stroke="black" points="699.23,-926.93 707.31,-933.79 705.27,-923.39 699.23,-926.93"/>
<text text-anchor="middle" x="629.97" y="-831.69" font-family="Times,serif" font-size="14.00">1</text>
</g>
<!-- t9 -->
<g id="node29" class="node">
<title>t9</title>
<polygon fill="#e28f41" stroke="#e28f41" points="1711.16,-2333.89 1521.16,-2333.89 1521.16,-2143.89 1711.16,-2143.89 1711.16,-2333.89"/>
<text text-anchor="middle" x="1616.16" y="-2235.19" font-family="Times,serif" font-size="14.00">((:inf, :UU), :Age2_Age1)</text>
</g>
<!-- s2&#45;&gt;t9 -->
<g id="edge25" class="edge">
<title>s2&#45;&gt;t9</title>
<path fill="none" stroke="black" d="M550.86,-809.37C575.82,-889.33 616.63,-1019.18 652.97,-1130.89 751.41,-1433.48 728.74,-1529.93 879.97,-1809.89 947.5,-1934.9 1021.62,-1930.45 1077.97,-2060.89 1099.53,-2110.8 1056.8,-2144.19 1095.97,-2181.89 1110.74,-2196.1 1363.74,-2218.68 1511.01,-2230.71"/>
<polygon fill="black" stroke="black" points="1510.74,-2234.2 1520.99,-2231.52 1511.31,-2227.22 1510.74,-2234.2"/>
<text text-anchor="middle" x="978.97" y="-2064.69" font-family="Times,serif" font-size="14.00">1</text>
</g>
<!-- t11 -->
<g id="node31" class="node">
<title>t11</title>
<polygon fill="#e28f41" stroke="#e28f41" points="2582.54,-775.89 2394.54,-775.89 2394.54,-587.89 2582.54,-587.89 2582.54,-775.89"/>
<text text-anchor="middle" x="2488.54" y="-678.19" font-family="Times,serif" font-size="14.00">((:inf, :VU), :Age2_Age1)</text>
</g>
<!-- s2&#45;&gt;t11 -->
<g id="edge89" class="edge">
<title>s2&#45;&gt;t11</title>
<path fill="none" stroke="black" d="M537.86,-655.41C563.33,-481.29 635.38,-77.89 756.47,-77.89 756.47,-77.89 756.47,-77.89 2053.85,-77.89 2297.15,-77.89 2417.27,-405.25 2463.72,-577.96"/>
<polygon fill="black" stroke="black" points="2460.39,-579.08 2466.34,-587.85 2467.16,-577.28 2460.39,-579.08"/>
<text text-anchor="middle" x="1380.16" y="-81.69" font-family="Times,serif" font-size="14.00">1</text>
</g>
<!-- t17 -->
<g id="node37" class="node">
<title>t17</title>
<polygon fill="#e28f41" stroke="#e28f41" points="1077.97,-703.89 879.97,-703.89 879.97,-505.89 1077.97,-505.89 1077.97,-703.89"/>
<text text-anchor="middle" x="978.97" y="-601.19" font-family="Times,serif" font-size="14.00">((:rec, :disease), :disease)</text>
</g>
<!-- s2&#45;&gt;t17 -->
<g id="edge73" class="edge">
<title>s2&#45;&gt;t17</title>
<path fill="none" stroke="black" d="M598.18,-700.12C607.1,-696.41 616.18,-692.9 624.97,-689.89 705.57,-662.29 799.44,-640.14 870.12,-625.38"/>
<polygon fill="black" stroke="black" points="870.85,-628.8 879.93,-623.35 869.43,-621.95 870.85,-628.8"/>
<text text-anchor="middle" x="629.97" y="-693.69" font-family="Times,serif" font-size="14.00">1</text>
</g>
<!-- t18 -->
<g id="node38" class="node">
<title>t18</title>
<polygon fill="#e28f41" stroke="#e28f41" points="861.97,-606.39 652.97,-606.39 652.97,-397.39 861.97,-397.39 861.97,-606.39"/>
<text text-anchor="middle" x="757.47" y="-498.19" font-family="Times,serif" font-size="14.00">((:hosp, :disease), :disease)</text>
</g>
<!-- s2&#45;&gt;t18 -->
<g id="edge34" class="edge">
<title>s2&#45;&gt;t18</title>
<path fill="none" stroke="black" d="M580.52,-675.59C594.79,-660.25 610.33,-643.81 624.97,-628.89 631.72,-622.01 638.72,-614.97 645.82,-607.91"/>
<polygon fill="black" stroke="black" points="648.3,-610.38 652.94,-600.85 643.37,-605.41 648.3,-610.38"/>
<text text-anchor="middle" x="629.97" y="-632.69" font-family="Times,serif" font-size="14.00">1</text>
</g>
<!-- t20 -->
<g id="node40" class="node">
<title>t20</title>
<polygon fill="#e28f41" stroke="#e28f41" points="1478.66,-334.39 1281.66,-334.39 1281.66,-137.39 1478.66,-137.39 1478.66,-334.39"/>
<text text-anchor="middle" x="1380.16" y="-232.19" font-family="Times,serif" font-size="14.00">((:die, :disease), :disease)</text>
</g>
<!-- s2&#45;&gt;t20 -->
<g id="edge90" class="edge">
<title>s2&#45;&gt;t20</title>
<path fill="none" stroke="black" d="M532.48,-654.67C542.26,-571.71 570.65,-443.82 652.97,-372.89 827.96,-222.1 1116.01,-215.65 1271.53,-225.09"/>
<polygon fill="black" stroke="black" points="1271.38,-228.59 1281.58,-225.74 1271.82,-221.6 1271.38,-228.59"/>
<text text-anchor="middle" x="757.47" y="-376.69" font-family="Times,serif" font-size="14.00">1</text>
</g>
<!-- s3 -->
<g id="node3" class="node">
<title>s3</title>
<ellipse fill="#6c9ac3" stroke="#6c9ac3" cx="2052.85" cy="-588.89" rx="83.39" ry="83.39"/>
<text text-anchor="middle" x="2052.85" y="-585.19" font-family="Times,serif" font-size="14.00">((:R, :U), :Age1)</text>
</g>
<!-- s4 -->
<g id="node4" class="node">
<title>s4</title>
<ellipse fill="#6c9ac3" stroke="#6c9ac3" cx="1179.81" cy="-485.89" rx="83.69" ry="83.69"/>
<text text-anchor="middle" x="1179.81" y="-482.19" font-family="Times,serif" font-size="14.00">((:H, :U), :Age1)</text>
</g>
<!-- t19 -->
<g id="node39" class="node">
<title>t19</title>
<polygon fill="#e28f41" stroke="#e28f41" points="1735.66,-652.39 1496.66,-652.39 1496.66,-413.39 1735.66,-413.39 1735.66,-652.39"/>
<text text-anchor="middle" x="1616.16" y="-529.19" font-family="Times,serif" font-size="14.00">((:hosp_rec, :disease), :disease)</text>
</g>
<!-- s4&#45;&gt;t19 -->
<g id="edge104" class="edge">
<title>s4&#45;&gt;t19</title>
<path fill="none" stroke="black" d="M1263.28,-494.81C1326.25,-501.63 1414.21,-511.14 1486.42,-518.96"/>
<polygon fill="black" stroke="black" points="1486.19,-522.45 1496.5,-520.05 1486.94,-515.49 1486.19,-522.45"/>
<text text-anchor="middle" x="1380.16" y="-521.69" font-family="Times,serif" font-size="14.00">1</text>
</g>
<!-- t21 -->
<g id="node41" class="node">
<title>t21</title>
<polygon fill="#e28f41" stroke="#e28f41" points="1735.16,-394.89 1497.16,-394.89 1497.16,-156.89 1735.16,-156.89 1735.16,-394.89"/>
<text text-anchor="middle" x="1616.16" y="-272.19" font-family="Times,serif" font-size="14.00">((:hosp_die, :disease), :disease)</text>
</g>
<!-- s4&#45;&gt;t21 -->
<g id="edge85" class="edge">
<title>s4&#45;&gt;t21</title>
<path fill="none" stroke="black" d="M1255.87,-450.07C1316.15,-421.26 1402.93,-379.65 1478.66,-342.89 1481.62,-341.45 1484.63,-339.99 1487.66,-338.51"/>
<polygon fill="black" stroke="black" points="1489.35,-341.58 1496.81,-334.06 1486.29,-335.29 1489.35,-341.58"/>
<text text-anchor="middle" x="1380.16" y="-439.69" font-family="Times,serif" font-size="14.00">1</text>
</g>
<!-- s5 -->
<g id="node5" class="node">
<title>s5</title>
<ellipse fill="#6c9ac3" stroke="#6c9ac3" cx="2052.85" cy="-231.89" rx="83.39" ry="83.39"/>
<text text-anchor="middle" x="2052.85" y="-228.19" font-family="Times,serif" font-size="14.00">((:D, :U), :Age1)</text>
</g>
<!-- s6 -->
<g id="node6" class="node">
<title>s6</title>
<ellipse fill="#6c9ac3" stroke="#6c9ac3" cx="526.38" cy="-2024.89" rx="80.69" ry="80.69"/>
<text text-anchor="middle" x="526.38" y="-2021.19" font-family="Times,serif" font-size="14.00">((:S, :V), :Age1)</text>
</g>
<!-- s6&#45;&gt;t3 -->
<g id="edge42" class="edge">
<title>s6&#45;&gt;t3</title>
<path fill="none" stroke="black" d="M545.45,-1946.24C586.44,-1767.86 686.47,-1332.54 732.53,-1132.08"/>
<polygon fill="black" stroke="black" points="735.99,-1132.66 734.82,-1122.13 729.17,-1131.09 735.99,-1132.66"/>
<text text-anchor="middle" x="629.97" y="-1589.69" font-family="Times,serif" font-size="14.00">1</text>
</g>
<!-- t4 -->
<g id="node24" class="node">
<title>t4</title>
<polygon fill="#e28f41" stroke="#e28f41" points="1708.66,-1531.39 1523.66,-1531.39 1523.66,-1346.39 1708.66,-1346.39 1708.66,-1531.39"/>
<text text-anchor="middle" x="1616.16" y="-1435.19" font-family="Times,serif" font-size="14.00">((:inf, :VV), :Age1_Age1)</text>
</g>
<!-- s6&#45;&gt;t4 -->
<g id="edge32" class="edge">
<title>s6&#45;&gt;t4</title>
<path fill="none" stroke="black" d="M593.35,-1979.86C721.91,-1893.3 1016.65,-1700.71 1281.66,-1569.89 1357.42,-1532.49 1446.66,-1497.9 1513.76,-1473.67"/>
<polygon fill="black" stroke="black" points="1515.27,-1476.84 1523.49,-1470.17 1512.9,-1470.26 1515.27,-1476.84"/>
<text text-anchor="middle" x="978.97" y="-1794.69" font-family="Times,serif" font-size="14.00">1</text>
</g>
<!-- t7 -->
<g id="node27" class="node">
<title>t7</title>
<polygon fill="#e28f41" stroke="#e28f41" points="2582.54,-2942.89 2394.54,-2942.89 2394.54,-2754.89 2582.54,-2754.89 2582.54,-2942.89"/>
<text text-anchor="middle" x="2488.54" y="-2845.19" font-family="Times,serif" font-size="14.00">((:inf, :VU), :Age1_Age2)</text>
</g>
<!-- s6&#45;&gt;t7 -->
<g id="edge35" class="edge">
<title>s6&#45;&gt;t7</title>
<path fill="none" stroke="black" d="M537.11,-2105.01C561.2,-2285.03 630.95,-2705.89 756.47,-2705.89 756.47,-2705.89 756.47,-2705.89 2053.85,-2705.89 2171.84,-2705.89 2299.22,-2754.22 2385.19,-2794.69"/>
<polygon fill="black" stroke="black" points="2383.89,-2797.94 2394.42,-2799.07 2386.89,-2791.62 2383.89,-2797.94"/>
<text text-anchor="middle" x="1380.16" y="-2709.69" font-family="Times,serif" font-size="14.00">1</text>
</g>
<!-- t8 -->
<g id="node28" class="node">
<title>t8</title>
<polygon fill="#e28f41" stroke="#e28f41" points="3454.73,-1641.39 3269.73,-1641.39 3269.73,-1456.39 3454.73,-1456.39 3454.73,-1641.39"/>
<text text-anchor="middle" x="3362.23" y="-1545.19" font-family="Times,serif" font-size="14.00">((:inf, :VV), :Age1_Age2)</text>
</g>
<!-- s6&#45;&gt;t8 -->
<g id="edge58" class="edge">
<title>s6&#45;&gt;t8</title>
<path fill="none" stroke="black" d="M606.93,-2020.95C716.86,-2015.62 921.43,-2006.04 1095.97,-1999.89 1380.2,-1989.86 1451.48,-1994.2 1735.66,-1982.89 1756.35,-1982.06 3208.99,-1917.35 3224.73,-1903.89 3254.07,-1878.79 3230.91,-1855.65 3242.73,-1818.89 3261.09,-1761.77 3287.48,-1700.36 3310.7,-1650.56"/>
<polygon fill="black" stroke="black" points="3313.91,-1651.94 3314.99,-1641.4 3307.58,-1648.97 3313.91,-1651.94"/>
<text text-anchor="middle" x="1852.66" y="-1985.69" font-family="Times,serif" font-size="14.00">1</text>
</g>
<!-- s7 -->
<g id="node7" class="node">
<title>s7</title>
<ellipse fill="#6c9ac3" stroke="#6c9ac3" cx="1179.81" cy="-1272.89" rx="77.99" ry="77.99"/>
<text text-anchor="middle" x="1179.81" y="-1269.19" font-family="Times,serif" font-size="14.00">((:I, :V), :Age1)</text>
</g>
<!-- s7&#45;&gt;t2 -->
<g id="edge22" class="edge">
<title>s7&#45;&gt;t2</title>
<path fill="none" stroke="black" d="M1193.74,-1195.81C1210.31,-1106.84 1241.74,-968.41 1281.66,-934.89 1315.41,-906.54 1436.52,-924.83 1478.66,-911.89 1489.93,-908.43 1501.37,-904.05 1512.59,-899.17"/>
<polygon fill="black" stroke="black" points="1514.26,-902.26 1521.95,-894.97 1511.4,-895.87 1514.26,-902.26"/>
<text text-anchor="middle" x="1380.16" y="-938.69" font-family="Times,serif" font-size="14.00">1</text>
</g>
<!-- s7&#45;&gt;t4 -->
<g id="edge7" class="edge">
<title>s7&#45;&gt;t4</title>
<path fill="none" stroke="black" d="M1248.03,-1311.16C1259.09,-1316.79 1270.57,-1322.25 1281.66,-1326.89 1366.22,-1362.24 1391.91,-1358.28 1478.66,-1387.89 1490.18,-1391.82 1502.2,-1396.08 1514.11,-1400.4"/>
<polygon fill="black" stroke="black" points="1513.04,-1403.73 1523.63,-1403.87 1515.44,-1397.16 1513.04,-1403.73"/>
<text text-anchor="middle" x="1380.16" y="-1391.69" font-family="Times,serif" font-size="14.00">1</text>
</g>
<!-- t10 -->
<g id="node30" class="node">
<title>t10</title>
<polygon fill="#e28f41" stroke="#e28f41" points="1710.16,-1775.89 1522.16,-1775.89 1522.16,-1587.89 1710.16,-1587.89 1710.16,-1775.89"/>
<text text-anchor="middle" x="1616.16" y="-1678.19" font-family="Times,serif" font-size="14.00">((:inf, :UV), :Age2_Age1)</text>
</g>
<!-- s7&#45;&gt;t10 -->
<g id="edge41" class="edge">
<title>s7&#45;&gt;t10</title>
<path fill="none" stroke="black" d="M1191.26,-1350.06C1206.2,-1447.96 1236.88,-1608.71 1281.66,-1646.89 1344.17,-1700.19 1439.1,-1705.36 1511.71,-1699.27"/>
<polygon fill="black" stroke="black" points="1512.17,-1702.75 1521.8,-1698.34 1511.53,-1695.77 1512.17,-1702.75"/>
<text text-anchor="middle" x="1380.16" y="-1704.69" font-family="Times,serif" font-size="14.00">1</text>
</g>
<!-- t12 -->
<g id="node32" class="node">
<title>t12</title>
<polygon fill="#e28f41" stroke="#e28f41" points="2581.04,-979.39 2396.04,-979.39 2396.04,-794.39 2581.04,-794.39 2581.04,-979.39"/>
<text text-anchor="middle" x="2488.54" y="-883.19" font-family="Times,serif" font-size="14.00">((:inf, :VV), :Age2_Age1)</text>
</g>
<!-- s7&#45;&gt;t12 -->
<g id="edge76" class="edge">
<title>s7&#45;&gt;t12</title>
<path fill="none" stroke="black" d="M1189.01,-1195.15C1199.75,-1134.26 1224.52,-1052.48 1281.66,-1006.89 1357.07,-946.71 1401.09,-990.15 1496.66,-976.89 1549.76,-969.52 1694.86,-978.67 1735.66,-943.89 1756.52,-926.1 1731.62,-901.2 1753.66,-884.89 1824.38,-832.52 1863.66,-884.72 1951.66,-884.89 2102.85,-885.17 2278.03,-885.9 2385.82,-886.4"/>
<polygon fill="black" stroke="black" points="2386.02,-889.9 2396.04,-886.44 2386.06,-882.9 2386.02,-889.9"/>
<text text-anchor="middle" x="1852.66" y="-888.69" font-family="Times,serif" font-size="14.00">1</text>
</g>
<!-- t22 -->
<g id="node42" class="node">
<title>t22</title>
<polygon fill="#e28f41" stroke="#e28f41" points="1951.66,-1156.89 1753.66,-1156.89 1753.66,-958.89 1951.66,-958.89 1951.66,-1156.89"/>
<text text-anchor="middle" x="1852.66" y="-1054.19" font-family="Times,serif" font-size="14.00">((:rec, :disease), :disease)</text>
</g>
<!-- s7&#45;&gt;t22 -->
<g id="edge21" class="edge">
<title>s7&#45;&gt;t22</title>
<path fill="none" stroke="black" d="M1235.97,-1218.45C1294.77,-1164.85 1393.46,-1087.06 1496.66,-1058.89 1577.13,-1036.92 1671.74,-1037.9 1743.04,-1043.71"/>
<polygon fill="black" stroke="black" points="1743.13,-1047.23 1753.39,-1044.6 1743.73,-1040.25 1743.13,-1047.23"/>
<text text-anchor="middle" x="1380.16" y="-1181.69" font-family="Times,serif" font-size="14.00">1</text>
</g>
<!-- t23 -->
<g id="node43" class="node">
<title>t23</title>
<polygon fill="#e28f41" stroke="#e28f41" points="1720.66,-1276.39 1511.66,-1276.39 1511.66,-1067.39 1720.66,-1067.39 1720.66,-1276.39"/>
<text text-anchor="middle" x="1616.16" y="-1168.19" font-family="Times,serif" font-size="14.00">((:hosp, :disease), :disease)</text>
</g>
<!-- s7&#45;&gt;t23 -->
<g id="edge49" class="edge">
<title>s7&#45;&gt;t23</title>
<path fill="none" stroke="black" d="M1255.97,-1255.41C1323.62,-1239.68 1423.99,-1216.34 1501.44,-1198.33"/>
<polygon fill="black" stroke="black" points="1502.31,-1201.72 1511.25,-1196.05 1500.72,-1194.91 1502.31,-1201.72"/>
<text text-anchor="middle" x="1380.16" y="-1251.69" font-family="Times,serif" font-size="14.00">1</text>
</g>
<!-- t25 -->
<g id="node45" class="node">
<title>t25</title>
<polygon fill="#e28f41" stroke="#e28f41" points="2351.04,-1750.39 2154.04,-1750.39 2154.04,-1553.39 2351.04,-1553.39 2351.04,-1750.39"/>
<text text-anchor="middle" x="2252.54" y="-1648.19" font-family="Times,serif" font-size="14.00">((:die, :disease), :disease)</text>
</g>
<!-- s7&#45;&gt;t25 -->
<g id="edge1" class="edge">
<title>s7&#45;&gt;t25</title>
<path fill="none" stroke="black" d="M1257.94,-1275.34C1388.99,-1280.24 1649.33,-1293.44 1735.66,-1322.89 1891.05,-1375.9 2046.86,-1484.83 2145.93,-1562.83"/>
<polygon fill="black" stroke="black" points="2143.84,-1565.64 2153.86,-1569.1 2148.19,-1560.15 2143.84,-1565.64"/>
<text text-anchor="middle" x="1616.16" y="-1326.69" font-family="Times,serif" font-size="14.00">1</text>
</g>
<!-- s8 -->
<g id="node8" class="node">
<title>s8</title>
<ellipse fill="#6c9ac3" stroke="#6c9ac3" cx="2925.88" cy="-1154.89" rx="81.49" ry="81.49"/>
<text text-anchor="middle" x="2925.88" y="-1151.19" font-family="Times,serif" font-size="14.00">((:R, :V), :Age1)</text>
</g>
<!-- s9 -->
<g id="node9" class="node">
<title>s9</title>
<ellipse fill="#6c9ac3" stroke="#6c9ac3" cx="2052.85" cy="-1221.89" rx="82.59" ry="82.59"/>
<text text-anchor="middle" x="2052.85" y="-1218.19" font-family="Times,serif" font-size="14.00">((:H, :V), :Age1)</text>
</g>
<!-- t24 -->
<g id="node44" class="node">
<title>t24</title>
<polygon fill="#e28f41" stroke="#e28f41" points="2608.04,-1313.39 2369.04,-1313.39 2369.04,-1074.39 2608.04,-1074.39 2608.04,-1313.39"/>
<text text-anchor="middle" x="2488.54" y="-1190.19" font-family="Times,serif" font-size="14.00">((:hosp_rec, :disease), :disease)</text>
</g>
<!-- s9&#45;&gt;t24 -->
<g id="edge67" class="edge">
<title>s9&#45;&gt;t24</title>
<path fill="none" stroke="black" d="M2135.42,-1216.62C2198.23,-1212.57 2286.24,-1206.88 2358.56,-1202.22"/>
<polygon fill="black" stroke="black" points="2358.9,-1205.7 2368.66,-1201.56 2358.45,-1198.72 2358.9,-1205.7"/>
<text text-anchor="middle" x="2252.54" y="-1218.69" font-family="Times,serif" font-size="14.00">1</text>
</g>
<!-- t26 -->
<g id="node46" class="node">
<title>t26</title>
<polygon fill="#e28f41" stroke="#e28f41" points="2607.54,-1569.89 2369.54,-1569.89 2369.54,-1331.89 2607.54,-1331.89 2607.54,-1569.89"/>
<text text-anchor="middle" x="2488.54" y="-1447.19" font-family="Times,serif" font-size="14.00">((:hosp_die, :disease), :disease)</text>
</g>
<!-- s9&#45;&gt;t26 -->
<g id="edge38" class="edge">
<title>s9&#45;&gt;t26</title>
<path fill="none" stroke="black" d="M2108.99,-1282.51C2118.53,-1294.21 2127.96,-1306.64 2136.04,-1318.89 2145.89,-1333.82 2140.29,-1343.45 2154.04,-1354.89 2211.54,-1402.71 2291.69,-1426.72 2359,-1438.78"/>
<polygon fill="black" stroke="black" points="2358.81,-1442.3 2369.26,-1440.54 2360,-1435.4 2358.81,-1442.3"/>
<text text-anchor="middle" x="2252.54" y="-1439.69" font-family="Times,serif" font-size="14.00">1</text>
</g>
<!-- s10 -->
<g id="node10" class="node">
<title>s10</title>
<ellipse fill="#6c9ac3" stroke="#6c9ac3" cx="2925.88" cy="-1598.89" rx="81.49" ry="81.49"/>
<text text-anchor="middle" x="2925.88" y="-1595.19" font-family="Times,serif" font-size="14.00">((:D, :V), :Age1)</text>
</g>
<!-- s11 -->
<g id="node11" class="node">
<title>s11</title>
<ellipse fill="#6c9ac3" stroke="#6c9ac3" cx="1179.81" cy="-2090.89" rx="81.79" ry="81.79"/>
<text text-anchor="middle" x="1179.81" y="-2087.19" font-family="Times,serif" font-size="14.00">((:S, :U), :Age2)</text>
</g>
<!-- s11&#45;&gt;t9 -->
<g id="edge44" class="edge">
<title>s11&#45;&gt;t9</title>
<path fill="none" stroke="black" d="M1256.08,-2121.49C1264.64,-2124.52 1273.29,-2127.4 1281.66,-2129.89 1367.45,-2155.45 1394.06,-2142.61 1478.66,-2171.89 1489.57,-2175.67 1500.74,-2180.11 1511.76,-2184.88"/>
<polygon fill="black" stroke="black" points="1510.41,-2188.11 1520.97,-2188.96 1513.25,-2181.71 1510.41,-2188.11"/>
<text text-anchor="middle" x="1380.16" y="-2175.69" font-family="Times,serif" font-size="14.00">1</text>
</g>
<!-- s11&#45;&gt;t10 -->
<g id="edge18" class="edge">
<title>s11&#45;&gt;t10</title>
<path fill="none" stroke="black" d="M1228.3,-2024.72C1244.37,-2003.85 1263,-1981.21 1281.66,-1961.89 1353.95,-1887.03 1444.92,-1811.72 1513.58,-1758.08"/>
<polygon fill="black" stroke="black" points="1516.1,-1760.56 1521.84,-1751.65 1511.8,-1755.04 1516.1,-1760.56"/>
<text text-anchor="middle" x="1380.16" y="-1965.69" font-family="Times,serif" font-size="14.00">1</text>
</g>
<!-- t13 -->
<g id="node33" class="node">
<title>t13</title>
<polygon fill="#e28f41" stroke="#e28f41" points="2583.54,-2173.89 2393.54,-2173.89 2393.54,-1983.89 2583.54,-1983.89 2583.54,-2173.89"/>
<text text-anchor="middle" x="2488.54" y="-2075.19" font-family="Times,serif" font-size="14.00">((:inf, :UU), :Age2_Age2)</text>
</g>
<!-- s11&#45;&gt;t13 -->
<g id="edge65" class="edge">
<title>s11&#45;&gt;t13</title>
<path fill="none" stroke="black" d="M1261.83,-2085.42C1428.67,-2074.51 1822.77,-2050.51 2154.04,-2043.89 2241.58,-2042.14 2264.17,-2032.93 2351.04,-2043.89 2361.63,-2045.23 2372.58,-2047.12 2383.46,-2049.35"/>
<polygon fill="black" stroke="black" points="2382.9,-2052.81 2393.41,-2051.49 2384.37,-2045.97 2382.9,-2052.81"/>
<text text-anchor="middle" x="1852.66" y="-2060.69" font-family="Times,serif" font-size="14.00">1</text>
</g>
<!-- t14 -->
<g id="node34" class="node">
<title>t14</title>
<polygon fill="#e28f41" stroke="#e28f41" points="3456.23,-2015.89 3268.23,-2015.89 3268.23,-1827.89 3456.23,-1827.89 3456.23,-2015.89"/>
<text text-anchor="middle" x="3362.23" y="-1918.19" font-family="Times,serif" font-size="14.00">((:inf, :UV), :Age2_Age2)</text>
</g>
<!-- s11&#45;&gt;t14 -->
<g id="edge71" class="edge">
<title>s11&#45;&gt;t14</title>
<path fill="none" stroke="black" d="M1259.9,-2072.63C1267.24,-2071.24 1274.57,-2069.96 1281.66,-2068.89 1521.46,-2032.52 2127.06,-1991.42 2369.04,-1974.89 2748.94,-1948.93 2844.67,-1955.36 3224.73,-1931.89 3235.44,-1931.23 3246.62,-1930.49 3257.77,-1929.72"/>
<polygon fill="black" stroke="black" points="3258.26,-1933.19 3267.99,-1929.01 3257.77,-1926.21 3258.26,-1933.19"/>
<text text-anchor="middle" x="2252.54" y="-1992.69" font-family="Times,serif" font-size="14.00">1</text>
</g>
<!-- t38 -->
<g id="node58" class="node">
<title>t38</title>
<polygon fill="#e28f41" stroke="#e28f41" points="1705.66,-1973.39 1526.66,-1973.39 1526.66,-1794.39 1705.66,-1794.39 1705.66,-1973.39"/>
<text text-anchor="middle" x="1616.16" y="-1880.19" font-family="Times,serif" font-size="14.00">((:strata, :vac), :strata)</text>
</g>
<!-- s11&#45;&gt;t38 -->
<g id="edge8" class="edge">
<title>s11&#45;&gt;t38</title>
<path fill="none" stroke="black" d="M1246.83,-2043.78C1258.09,-2037.09 1269.95,-2030.82 1281.66,-2025.89 1364.43,-1991.03 1396.69,-2017.61 1478.66,-1980.89 1491.81,-1975 1504.98,-1967.75 1517.68,-1959.9"/>
<polygon fill="black" stroke="black" points="1519.82,-1962.68 1526.38,-1954.37 1516.07,-1956.77 1519.82,-1962.68"/>
<text text-anchor="middle" x="1380.16" y="-2029.69" font-family="Times,serif" font-size="14.00">1</text>
</g>
<!-- s12 -->
<g id="node12" class="node">
<title>s12</title>
<ellipse fill="#6c9ac3" stroke="#6c9ac3" cx="2052.85" cy="-2239.89" rx="79.09" ry="79.09"/>
<text text-anchor="middle" x="2052.85" y="-2236.19" font-family="Times,serif" font-size="14.00">((:I, :U), :Age2)</text>
</g>
<!-- s12&#45;&gt;t5 -->
<g id="edge69" class="edge">
<title>s12&#45;&gt;t5</title>
<path fill="none" stroke="black" d="M2100.34,-2303.89C2119.64,-2328.57 2140.61,-2352.63 2154.04,-2359.89 2192.81,-2380.85 2319.83,-2351.77 2351.04,-2382.89 2374.82,-2406.59 2353.74,-2503.01 2369.04,-2532.89 2373.97,-2542.51 2380.11,-2551.71 2386.99,-2560.4"/>
<polygon fill="black" stroke="black" points="2384.41,-2562.77 2393.49,-2568.23 2389.79,-2558.3 2384.41,-2562.77"/>
<text text-anchor="middle" x="2252.54" y="-2386.69" font-family="Times,serif" font-size="14.00">1</text>
</g>
<!-- s12&#45;&gt;t7 -->
<g id="edge97" class="edge">
<title>s12&#45;&gt;t7</title>
<path fill="none" stroke="black" d="M2084.86,-2312.51C2101.39,-2343.79 2124.49,-2378.48 2154.04,-2401.89 2226.41,-2459.24 2294.71,-2394.72 2351.04,-2467.89 2388.81,-2516.94 2341.56,-2690.42 2369.04,-2745.89 2374,-2755.9 2380.41,-2765.35 2387.68,-2774.15"/>
<polygon fill="black" stroke="black" points="2385.07,-2776.48 2394.27,-2781.73 2390.35,-2771.89 2385.07,-2776.48"/>
<text text-anchor="middle" x="2252.54" y="-2471.69" font-family="Times,serif" font-size="14.00">1</text>
</g>
<!-- s12&#45;&gt;t13 -->
<g id="edge20" class="edge">
<title>s12&#45;&gt;t13</title>
<path fill="none" stroke="black" d="M2118.07,-2194.53C2129.62,-2188.04 2141.87,-2182.13 2154.04,-2177.89 2237.29,-2148.89 2267.15,-2181.96 2351.04,-2154.89 2362.13,-2151.31 2373.35,-2146.79 2384.33,-2141.75"/>
<polygon fill="black" stroke="black" points="2385.96,-2144.85 2393.49,-2137.4 2382.96,-2138.53 2385.96,-2144.85"/>
<text text-anchor="middle" x="2252.54" y="-2181.69" font-family="Times,serif" font-size="14.00">1</text>
</g>
<!-- t15 -->
<g id="node35" class="node">
<title>t15</title>
<polygon fill="#e28f41" stroke="#e28f41" points="2582.54,-1775.89 2394.54,-1775.89 2394.54,-1587.89 2582.54,-1587.89 2582.54,-1775.89"/>
<text text-anchor="middle" x="2488.54" y="-1678.19" font-family="Times,serif" font-size="14.00">((:inf, :VU), :Age2_Age2)</text>
</g>
<!-- s12&#45;&gt;t15 -->
<g id="edge63" class="edge">
<title>s12&#45;&gt;t15</title>
<path fill="none" stroke="black" d="M2087.57,-2168.42C2103.84,-2141.83 2126,-2114.18 2154.04,-2097.89 2192.07,-2075.8 2320.47,-2110.51 2351.04,-2078.89 2373.4,-2055.76 2355.14,-1818.9 2369.04,-1789.89 2374.07,-1779.4 2380.62,-1769.45 2388.05,-1760.16"/>
<polygon fill="black" stroke="black" points="2390.73,-1762.41 2394.49,-1752.5 2385.37,-1757.9 2390.73,-1762.41"/>
<text text-anchor="middle" x="2252.54" y="-2101.69" font-family="Times,serif" font-size="14.00">1</text>
</g>
<!-- t28 -->
<g id="node48" class="node">
<title>t28</title>
<polygon fill="#e28f41" stroke="#e28f41" points="2824.04,-2375.89 2626.04,-2375.89 2626.04,-2177.89 2824.04,-2177.89 2824.04,-2375.89"/>
<text text-anchor="middle" x="2725.04" y="-2273.19" font-family="Times,serif" font-size="14.00">((:rec, :disease), :disease)</text>
</g>
<!-- s12&#45;&gt;t28 -->
<g id="edge26" class="edge">
<title>s12&#45;&gt;t28</title>
<path fill="none" stroke="black" d="M2132.33,-2238.17C2139.67,-2238.06 2147,-2237.96 2154.04,-2237.89 2241.59,-2237.01 2263.57,-2234.15 2351.04,-2237.89 2465.58,-2242.78 2494.16,-2246.68 2608.04,-2259.89 2610.61,-2260.19 2613.2,-2260.5 2615.82,-2260.82"/>
<polygon fill="black" stroke="black" points="2615.64,-2264.32 2626,-2262.1 2616.52,-2257.38 2615.64,-2264.32"/>
<text text-anchor="middle" x="2252.54" y="-2241.69" font-family="Times,serif" font-size="14.00">1</text>
</g>
<!-- t29 -->
<g id="node49" class="node">
<title>t29</title>
<polygon fill="#e28f41" stroke="#e28f41" points="2593.04,-2477.39 2384.04,-2477.39 2384.04,-2268.39 2593.04,-2268.39 2593.04,-2477.39"/>
<text text-anchor="middle" x="2488.54" y="-2369.19" font-family="Times,serif" font-size="14.00">((:hosp, :disease), :disease)</text>
</g>
<!-- s12&#45;&gt;t29 -->
<g id="edge28" class="edge">
<title>s12&#45;&gt;t29</title>
<path fill="none" stroke="black" d="M2131.2,-2253.34C2138.91,-2254.59 2146.62,-2255.79 2154.04,-2256.89 2241.35,-2269.83 2268.35,-2251.04 2351.04,-2281.89 2359.09,-2284.89 2367.13,-2288.45 2375.06,-2292.39"/>
<polygon fill="black" stroke="black" points="2373.47,-2295.51 2383.96,-2296.99 2376.69,-2289.29 2373.47,-2295.51"/>
<text text-anchor="middle" x="2252.54" y="-2285.69" font-family="Times,serif" font-size="14.00">1</text>
</g>
<!-- t31 -->
<g id="node51" class="node">
<title>t31</title>
<polygon fill="#e28f41" stroke="#e28f41" points="3224.73,-2762.39 3027.73,-2762.39 3027.73,-2565.39 3224.73,-2565.39 3224.73,-2762.39"/>
<text text-anchor="middle" x="3126.23" y="-2660.19" font-family="Times,serif" font-size="14.00">((:die, :disease), :disease)</text>
</g>
<!-- s12&#45;&gt;t31 -->
<g id="edge93" class="edge">
<title>s12&#45;&gt;t31</title>
<path fill="none" stroke="black" d="M2120.13,-2282.14C2131.14,-2287.81 2142.68,-2293.01 2154.04,-2296.89 2195.88,-2311.18 2320.26,-2293.15 2351.04,-2324.89 2401.48,-2376.89 2318.82,-2434.68 2369.04,-2486.89 2406.28,-2525.6 2555.49,-2511.81 2608.04,-2522.89 2751.17,-2553.07 2913.51,-2599.34 3017.51,-2630.57"/>
<polygon fill="black" stroke="black" points="3016.81,-2634.01 3027.39,-2633.55 3018.83,-2627.31 3016.81,-2634.01"/>
<text text-anchor="middle" x="2488.54" y="-2526.69" font-family="Times,serif" font-size="14.00">1</text>
</g>
<!-- s13 -->
<g id="node13" class="node">
<title>s13</title>
<ellipse fill="#6c9ac3" stroke="#6c9ac3" cx="3798.92" cy="-2260.89" rx="83.39" ry="83.39"/>
<text text-anchor="middle" x="3798.92" y="-2257.19" font-family="Times,serif" font-size="14.00">((:R, :U), :Age2)</text>
</g>
<!-- s14 -->
<g id="node14" class="node">
<title>s14</title>
<ellipse fill="#6c9ac3" stroke="#6c9ac3" cx="2925.88" cy="-2398.89" rx="83.69" ry="83.69"/>
<text text-anchor="middle" x="2925.88" y="-2395.19" font-family="Times,serif" font-size="14.00">((:H, :U), :Age2)</text>
</g>
<!-- t30 -->
<g id="node50" class="node">
<title>t30</title>
<polygon fill="#e28f41" stroke="#e28f41" points="3481.73,-2491.39 3242.73,-2491.39 3242.73,-2252.39 3481.73,-2252.39 3481.73,-2491.39"/>
<text text-anchor="middle" x="3362.23" y="-2368.19" font-family="Times,serif" font-size="14.00">((:hosp_rec, :disease), :disease)</text>
</g>
<!-- s14&#45;&gt;t30 -->
<g id="edge40" class="edge">
<title>s14&#45;&gt;t30</title>
<path fill="none" stroke="black" d="M3009.08,-2386.79C3015.38,-2386.08 3021.65,-2385.43 3027.73,-2384.89 3095.11,-2378.91 3170.4,-2375.68 3232.36,-2373.94"/>
<polygon fill="black" stroke="black" points="3232.68,-2377.43 3242.58,-2373.66 3232.49,-2370.43 3232.68,-2377.43"/>
<text text-anchor="middle" x="3126.23" y="-2388.69" font-family="Times,serif" font-size="14.00">1</text>
</g>
<!-- t32 -->
<g id="node52" class="node">
<title>t32</title>
<polygon fill="#e28f41" stroke="#e28f41" points="3481.23,-2747.89 3243.23,-2747.89 3243.23,-2509.89 3481.23,-2509.89 3481.23,-2747.89"/>
<text text-anchor="middle" x="3362.23" y="-2625.19" font-family="Times,serif" font-size="14.00">((:hosp_die, :disease), :disease)</text>
</g>
<!-- s14&#45;&gt;t32 -->
<g id="edge46" class="edge">
<title>s14&#45;&gt;t32</title>
<path fill="none" stroke="black" d="M3002.81,-2432.3C3063.77,-2459.84 3151.04,-2500.91 3224.73,-2541.89 3227.83,-2543.61 3230.96,-2545.38 3234.1,-2547.18"/>
<polygon fill="black" stroke="black" points="3232.59,-2550.35 3243,-2552.34 3236.1,-2544.29 3232.59,-2550.35"/>
<text text-anchor="middle" x="3126.23" y="-2545.69" font-family="Times,serif" font-size="14.00">1</text>
</g>
<!-- s15 -->
<g id="node15" class="node">
<title>s15</title>
<ellipse fill="#6c9ac3" stroke="#6c9ac3" cx="3798.92" cy="-2737.89" rx="83.39" ry="83.39"/>
<text text-anchor="middle" x="3798.92" y="-2734.19" font-family="Times,serif" font-size="14.00">((:D, :U), :Age2)</text>
</g>
<!-- s16 -->
<g id="node16" class="node">
<title>s16</title>
<ellipse fill="#6c9ac3" stroke="#6c9ac3" cx="2052.85" cy="-1001.89" rx="80.69" ry="80.69"/>
<text text-anchor="middle" x="2052.85" y="-998.19" font-family="Times,serif" font-size="14.00">((:S, :V), :Age2)</text>
</g>
<!-- s16&#45;&gt;t11 -->
<g id="edge33" class="edge">
<title>s16&#45;&gt;t11</title>
<path fill="none" stroke="black" d="M2118.31,-954.33C2188.99,-902.18 2303.33,-817.81 2386.07,-756.76"/>
<polygon fill="black" stroke="black" points="2388.26,-759.49 2394.23,-750.74 2384.1,-753.86 2388.26,-759.49"/>
<text text-anchor="middle" x="2252.54" y="-927.69" font-family="Times,serif" font-size="14.00">1</text>
</g>
<!-- s16&#45;&gt;t12 -->
<g id="edge77" class="edge">
<title>s16&#45;&gt;t12</title>
<path fill="none" stroke="black" d="M2131.37,-983.33C2139.01,-981.73 2146.66,-980.22 2154.04,-978.89 2240.95,-963.21 2266.43,-978.21 2351.04,-952.89 2362.78,-949.38 2374.77,-944.96 2386.52,-940.08"/>
<polygon fill="black" stroke="black" points="2388.06,-943.22 2395.88,-936.08 2385.31,-936.79 2388.06,-943.22"/>
<text text-anchor="middle" x="2252.54" y="-982.69" font-family="Times,serif" font-size="14.00">1</text>
</g>
<!-- s16&#45;&gt;t15 -->
<g id="edge102" class="edge">
<title>s16&#45;&gt;t15</title>
<path fill="none" stroke="black" d="M2102.05,-1065.94C2114.85,-1085.59 2127.47,-1107.86 2136.04,-1129.89 2153.05,-1173.6 2126.32,-1196.05 2154.04,-1233.89 2212.3,-1313.43 2296.72,-1253.61 2351.04,-1335.89 2380.87,-1381.08 2344.78,-1530.48 2369.04,-1578.89 2374.05,-1588.88 2380.49,-1598.31 2387.78,-1607.1"/>
<polygon fill="black" stroke="black" points="2385.17,-1609.44 2394.39,-1614.67 2390.44,-1604.84 2385.17,-1609.44"/>
<text text-anchor="middle" x="2252.54" y="-1339.69" font-family="Times,serif" font-size="14.00">1</text>
</g>
<!-- t16 -->
<g id="node36" class="node">
<title>t16</title>
<polygon fill="#e28f41" stroke="#e28f41" points="3454.73,-1103.39 3269.73,-1103.39 3269.73,-918.39 3454.73,-918.39 3454.73,-1103.39"/>
<text text-anchor="middle" x="3362.23" y="-1007.19" font-family="Times,serif" font-size="14.00">((:inf, :VV), :Age2_Age2)</text>
</g>
<!-- s16&#45;&gt;t16 -->
<g id="edge81" class="edge">
<title>s16&#45;&gt;t16</title>
<path fill="none" stroke="black" d="M2133.66,-1002.44C2360.32,-1004 3007.71,-1008.45 3259.4,-1010.19"/>
<polygon fill="black" stroke="black" points="3259.61,-1013.69 3269.63,-1010.26 3259.66,-1006.69 3259.61,-1013.69"/>
<text text-anchor="middle" x="2725.04" y="-1010.69" font-family="Times,serif" font-size="14.00">1</text>
</g>
<!-- s17 -->
<g id="node17" class="node">
<title>s17</title>
<ellipse fill="#6c9ac3" stroke="#6c9ac3" cx="2925.88" cy="-897.89" rx="77.99" ry="77.99"/>
<text text-anchor="middle" x="2925.88" y="-894.19" font-family="Times,serif" font-size="14.00">((:I, :V), :Age2)</text>
</g>
<!-- s17&#45;&gt;t6 -->
<g id="edge13" class="edge">
<title>s17&#45;&gt;t6</title>
<path fill="none" stroke="black" d="M2929.42,-819.96C2935.73,-727.93 2957.02,-573.41 3027.73,-462.89 3084.77,-373.73 3183.55,-302.76 3258.84,-257.82"/>
<polygon fill="black" stroke="black" points="3261.07,-260.56 3267.9,-252.46 3257.51,-254.54 3261.07,-260.56"/>
<text text-anchor="middle" x="3126.23" y="-466.69" font-family="Times,serif" font-size="14.00">1</text>
</g>
<!-- s17&#45;&gt;t8 -->
<g id="edge94" class="edge">
<title>s17&#45;&gt;t8</title>
<path fill="none" stroke="black" d="M2978.52,-955.78C2993.48,-970.62 3010.46,-985.79 3027.73,-997.89 3107.02,-1053.44 3161.64,-1017.44 3224.73,-1090.89 3311.1,-1191.44 3342.83,-1344.87 3354.48,-1446.01"/>
<polygon fill="black" stroke="black" points="3351.03,-1446.68 3355.61,-1456.24 3357.99,-1445.92 3351.03,-1446.68"/>
<text text-anchor="middle" x="3126.23" y="-1094.69" font-family="Times,serif" font-size="14.00">1</text>
</g>
<!-- s17&#45;&gt;t14 -->
<g id="edge56" class="edge">
<title>s17&#45;&gt;t14</title>
<path fill="none" stroke="black" d="M2967.52,-964.08C2983.68,-993.8 3000.57,-1029.98 3009.73,-1064.89 3048.45,-1212.55 2980.58,-1262.7 3027.73,-1407.89 3078.91,-1565.5 3191.29,-1721.62 3271.44,-1819.71"/>
<polygon fill="black" stroke="black" points="3268.83,-1822.04 3277.88,-1827.55 3274.24,-1817.6 3268.83,-1822.04"/>
<text text-anchor="middle" x="3126.23" y="-1753.69" font-family="Times,serif" font-size="14.00">1</text>
</g>
<!-- s17&#45;&gt;t16 -->
<g id="edge75" class="edge">
<title>s17&#45;&gt;t16</title>
<path fill="none" stroke="black" d="M3003.86,-899.8C3078.26,-902.42 3185.33,-908.43 3224.73,-921.89 3236.89,-926.04 3249.03,-931.52 3260.78,-937.73"/>
<polygon fill="black" stroke="black" points="3259.23,-940.87 3269.68,-942.61 3262.59,-934.73 3259.23,-940.87"/>
<text text-anchor="middle" x="3126.23" y="-925.69" font-family="Times,serif" font-size="14.00">1</text>
</g>
<!-- t33 -->
<g id="node53" class="node">
<title>t33</title>
<polygon fill="#e28f41" stroke="#e28f41" points="3697.73,-627.89 3499.73,-627.89 3499.73,-429.89 3697.73,-429.89 3697.73,-627.89"/>
<text text-anchor="middle" x="3598.73" y="-525.19" font-family="Times,serif" font-size="14.00">((:rec, :disease), :disease)</text>
</g>
<!-- s17&#45;&gt;t33 -->
<g id="edge96" class="edge">
<title>s17&#45;&gt;t33</title>
<path fill="none" stroke="black" d="M2971.17,-834.06C2987.6,-812.7 3007.25,-789.59 3027.73,-770.89 3112.11,-693.83 3138.8,-677.4 3242.73,-629.89 3322.18,-593.56 3417.69,-567.28 3489.62,-550.65"/>
<polygon fill="black" stroke="black" points="3490.64,-554.01 3499.61,-548.37 3489.08,-547.18 3490.64,-554.01"/>
<text text-anchor="middle" x="3126.23" y="-774.69" font-family="Times,serif" font-size="14.00">1</text>
</g>
<!-- t34 -->
<g id="node54" class="node">
<title>t34</title>
<polygon fill="#e28f41" stroke="#e28f41" points="3466.73,-848.39 3257.73,-848.39 3257.73,-639.39 3466.73,-639.39 3466.73,-848.39"/>
<text text-anchor="middle" x="3362.23" y="-740.19" font-family="Times,serif" font-size="14.00">((:hosp, :disease), :disease)</text>
</g>
<!-- s17&#45;&gt;t34 -->
<g id="edge57" class="edge">
<title>s17&#45;&gt;t34</title>
<path fill="none" stroke="black" d="M2997.98,-867.54C3007.92,-863.51 3018.05,-859.52 3027.73,-855.89 3100.33,-828.62 3182.96,-800.84 3247.81,-779.78"/>
<polygon fill="black" stroke="black" points="3249.22,-783 3257.65,-776.59 3247.06,-776.34 3249.22,-783"/>
<text text-anchor="middle" x="3126.23" y="-859.69" font-family="Times,serif" font-size="14.00">1</text>
</g>
<!-- t36 -->
<g id="node56" class="node">
<title>t36</title>
<polygon fill="#e28f41" stroke="#e28f41" points="4097.11,-1093.39 3900.11,-1093.39 3900.11,-896.39 4097.11,-896.39 4097.11,-1093.39"/>
<text text-anchor="middle" x="3998.61" y="-991.19" font-family="Times,serif" font-size="14.00">((:die, :disease), :disease)</text>
</g>
<!-- s17&#45;&gt;t36 -->
<g id="edge84" class="edge">
<title>s17&#45;&gt;t36</title>
<path fill="none" stroke="black" d="M3004.11,-896.95C3068.06,-896.22 3161.3,-895.28 3242.73,-894.89 3348.95,-894.38 3375.99,-884.74 3481.73,-894.89 3624.47,-908.6 3786.4,-943.17 3890.15,-967.82"/>
<polygon fill="black" stroke="black" points="3889.47,-971.25 3900.01,-970.17 3891.1,-964.44 3889.47,-971.25"/>
<text text-anchor="middle" x="3362.23" y="-898.69" font-family="Times,serif" font-size="14.00">1</text>
</g>
<!-- s18 -->
<g id="node18" class="node">
<title>s18</title>
<ellipse fill="#6c9ac3" stroke="#6c9ac3" cx="4481.35" cy="-553.89" rx="81.49" ry="81.49"/>
<text text-anchor="middle" x="4481.35" y="-550.19" font-family="Times,serif" font-size="14.00">((:R, :V), :Age2)</text>
</g>
<!-- s19 -->
<g id="node19" class="node">
<title>s19</title>
<ellipse fill="#6c9ac3" stroke="#6c9ac3" cx="3798.92" cy="-743.89" rx="82.59" ry="82.59"/>
<text text-anchor="middle" x="3798.92" y="-740.19" font-family="Times,serif" font-size="14.00">((:H, :V), :Age2)</text>
</g>
<!-- t35 -->
<g id="node55" class="node">
<title>t35</title>
<polygon fill="#e28f41" stroke="#e28f41" points="4354.11,-775.39 4115.11,-775.39 4115.11,-536.39 4354.11,-536.39 4354.11,-775.39"/>
<text text-anchor="middle" x="4234.61" y="-652.19" font-family="Times,serif" font-size="14.00">((:hosp_rec, :disease), :disease)</text>
</g>
<!-- s19&#45;&gt;t35 -->
<g id="edge2" class="edge">
<title>s19&#45;&gt;t35</title>
<path fill="none" stroke="black" d="M3879.97,-727.65C3942.85,-714.89 4031.67,-696.86 4104.56,-682.07"/>
<polygon fill="black" stroke="black" points="4105.64,-685.43 4114.74,-680.01 4104.24,-678.57 4105.64,-685.43"/>
<text text-anchor="middle" x="3998.61" y="-726.69" font-family="Times,serif" font-size="14.00">1</text>
</g>
<!-- t37 -->
<g id="node57" class="node">
<title>t37</title>
<polygon fill="#e28f41" stroke="#e28f41" points="4353.61,-1031.89 4115.61,-1031.89 4115.61,-793.89 4353.61,-793.89 4353.61,-1031.89"/>
<text text-anchor="middle" x="4234.61" y="-909.19" font-family="Times,serif" font-size="14.00">((:hosp_die, :disease), :disease)</text>
</g>
<!-- s19&#45;&gt;t37 -->
<g id="edge6" class="edge">
<title>s19&#45;&gt;t37</title>
<path fill="none" stroke="black" d="M3876.46,-773.71C3939.89,-798.43 4031.39,-834.09 4105.89,-863.12"/>
<polygon fill="black" stroke="black" points="4104.77,-866.44 4115.35,-866.81 4107.31,-859.91 4104.77,-866.44"/>
<text text-anchor="middle" x="3998.61" y="-861.69" font-family="Times,serif" font-size="14.00">1</text>
</g>
<!-- s20 -->
<g id="node20" class="node">
<title>s20</title>
<ellipse fill="#6c9ac3" stroke="#6c9ac3" cx="4481.35" cy="-1021.89" rx="81.49" ry="81.49"/>
<text text-anchor="middle" x="4481.35" y="-1018.19" font-family="Times,serif" font-size="14.00">((:D, :V), :Age2)</text>
</g>
<!-- t1&#45;&gt;s2 -->
<g id="edge14" class="edge">
<title>t1&#45;&gt;s2</title>
<path fill="none" stroke="black" d="M399.87,-738.46C412.15,-738.01 424.69,-737.56 436.87,-737.11"/>
<polygon fill="black" stroke="black" points="437.14,-740.61 447.01,-736.74 436.88,-733.61 437.14,-740.61"/>
<text text-anchor="middle" x="422.79" y="-741.69" font-family="Times,serif" font-size="14.00">2</text>
</g>
<!-- t2&#45;&gt;s2 -->
<g id="edge72" class="edge">
<title>t2&#45;&gt;s2</title>
<path fill="none" stroke="black" d="M1522.11,-831.74C1314.97,-811.36 818.17,-762.49 615.61,-742.57"/>
<polygon fill="black" stroke="black" points="615.9,-739.08 605.61,-741.58 615.22,-746.05 615.9,-739.08"/>
<text text-anchor="middle" x="978.97" y="-790.69" font-family="Times,serif" font-size="14.00">1</text>
</g>
<!-- t2&#45;&gt;s7 -->
<g id="edge23" class="edge">
<title>t2&#45;&gt;s7</title>
<path fill="none" stroke="black" d="M1521.9,-865.28C1507.49,-868.51 1492.72,-871.52 1478.66,-873.89 1435.28,-881.19 1315.19,-864.43 1281.66,-892.89 1237.51,-930.36 1207.58,-1085.09 1192.42,-1185.18"/>
<polygon fill="black" stroke="black" points="1188.93,-1184.89 1190.91,-1195.29 1195.85,-1185.92 1188.93,-1184.89"/>
<text text-anchor="middle" x="1380.16" y="-896.69" font-family="Times,serif" font-size="14.00">1</text>
</g>
<!-- t3&#45;&gt;s2 -->
<g id="edge98" class="edge">
<title>t3&#45;&gt;s2</title>
<path fill="none" stroke="black" d="M720.11,-933.87C699.77,-889.66 671.17,-838.35 634.97,-799.89 626.44,-790.82 616.39,-782.53 605.93,-775.11"/>
<polygon fill="black" stroke="black" points="607.7,-772.09 597.47,-769.36 603.77,-777.88 607.7,-772.09"/>
<text text-anchor="middle" x="629.97" y="-803.69" font-family="Times,serif" font-size="14.00">1</text>
</g>
<!-- t3&#45;&gt;s7 -->
<g id="edge64" class="edge">
<title>t3&#45;&gt;s7</title>
<path fill="none" stroke="black" d="M851.5,-1082.11C927.21,-1126.24 1032.73,-1187.74 1103.29,-1228.87"/>
<polygon fill="black" stroke="black" points="1101.74,-1232.02 1112.14,-1234.03 1105.27,-1225.97 1101.74,-1232.02"/>
<text text-anchor="middle" x="978.97" y="-1216.69" font-family="Times,serif" font-size="14.00">1</text>
</g>
<!-- t4&#45;&gt;s7 -->
<g id="edge74" class="edge">
<title>t4&#45;&gt;s7</title>
<path fill="none" stroke="black" d="M1523.38,-1447.66C1452.92,-1450.16 1355.51,-1444.13 1281.66,-1402.89 1258.87,-1390.16 1239.5,-1369.96 1224.02,-1349.24"/>
<polygon fill="black" stroke="black" points="1226.74,-1347.04 1218.06,-1340.98 1221.07,-1351.14 1226.74,-1347.04"/>
<text text-anchor="middle" x="1380.16" y="-1450.69" font-family="Times,serif" font-size="14.00">2</text>
</g>
<!-- t5&#45;&gt;s2 -->
<g id="edge62" class="edge">
<title>t5&#45;&gt;s2</title>
<path fill="none" stroke="black" d="M2393.36,-2574.34C2384,-2564.37 2375.57,-2553.51 2369.04,-2541.89 2343.49,-2496.4 2388.97,-2461.71 2351.04,-2425.89 2333.71,-2409.52 1520.22,-2346.52 1496.66,-2342.89 1316.74,-2315.16 1272.23,-2303.42 1095.97,-2257.89 881.57,-2202.51 783.94,-2208.44 652.97,-2029.89 651.49,-2027.86 625.46,-1946.35 624.97,-1943.89 542.31,-1531.05 529.23,-1025.68 527.47,-823.6"/>
<polygon fill="black" stroke="black" points="530.97,-823.31 527.39,-813.34 523.97,-823.37 530.97,-823.31"/>
<text text-anchor="middle" x="1380.16" y="-2342.69" font-family="Times,serif" font-size="14.00">1</text>
</g>
<!-- t5&#45;&gt;s12 -->
<g id="edge83" class="edge">
<title>t5&#45;&gt;s12</title>
<path fill="none" stroke="black" d="M2393.46,-2568.71C2383.89,-2557.67 2375.37,-2545.66 2369.04,-2532.89 2350,-2494.5 2381.3,-2371.23 2351.04,-2340.89 2319.98,-2309.75 2194.7,-2338.65 2154.04,-2321.89 2141.5,-2316.72 2129.3,-2309.43 2117.99,-2301.31"/>
<polygon fill="black" stroke="black" points="2120.01,-2298.45 2109.91,-2295.26 2115.82,-2304.06 2120.01,-2298.45"/>
<text text-anchor="middle" x="2252.54" y="-2344.69" font-family="Times,serif" font-size="14.00">1</text>
</g>
<!-- t6&#45;&gt;s2 -->
<g id="edge45" class="edge">
<title>t6&#45;&gt;s2</title>
<path fill="none" stroke="black" d="M3268.02,-146.3C3182.55,-99.04 3050.81,-39.89 2926.88,-39.89 756.47,-39.89 756.47,-39.89 756.47,-39.89 708.05,-39.89 684.92,-37.51 652.97,-73.89 579.39,-157.66 545.67,-484.39 533.31,-644.48"/>
<polygon fill="black" stroke="black" points="529.79,-644.54 532.52,-654.78 536.77,-645.07 529.79,-644.54"/>
<text text-anchor="middle" x="1852.66" y="-43.69" font-family="Times,serif" font-size="14.00">1</text>
</g>
<!-- t6&#45;&gt;s17 -->
<g id="edge36" class="edge">
<title>t6&#45;&gt;s17</title>
<path fill="none" stroke="black" d="M3338.14,-297.95C3318.25,-358.73 3283.24,-434.34 3224.73,-477.89 3153.45,-530.93 3093.15,-451.78 3027.73,-511.89 2984.29,-551.8 2954.01,-709.48 2938.61,-810.54"/>
<polygon fill="black" stroke="black" points="2935.15,-810.03 2937.12,-820.44 2942.07,-811.08 2935.15,-810.03"/>
<text text-anchor="middle" x="3126.23" y="-515.69" font-family="Times,serif" font-size="14.00">1</text>
</g>
<!-- t7&#45;&gt;s7 -->
<g id="edge53" class="edge">
<title>t7&#45;&gt;s7</title>
<path fill="none" stroke="black" d="M2394.36,-2776.95C2385.01,-2767.19 2376.3,-2756.77 2369.04,-2745.89 2355,-2724.85 2365.21,-2712.84 2351.04,-2691.89 2286.73,-2596.81 2237.18,-2604.03 2154.04,-2524.89 2067.18,-2442.2 2022.76,-2435.41 1969.66,-2327.89 1948.11,-2284.26 1980.24,-2259.27 1951.66,-2219.89 1817.72,-2035.36 1653.19,-2148.67 1496.66,-1982.89 1483.27,-1968.71 1489.23,-1959.27 1478.66,-1942.89 1406.93,-1831.78 1341.87,-1837.63 1281.66,-1719.89 1222.51,-1604.22 1197.78,-1454.24 1187.64,-1360.78"/>
<polygon fill="black" stroke="black" points="1191.11,-1360.37 1186.59,-1350.79 1184.15,-1361.1 1191.11,-1360.37"/>
<text text-anchor="middle" x="1852.66" y="-2223.69" font-family="Times,serif" font-size="14.00">1</text>
</g>
<!-- t7&#45;&gt;s12 -->
<g id="edge12" class="edge">
<title>t7&#45;&gt;s12</title>
<path fill="none" stroke="black" d="M2394.41,-2781.66C2384.41,-2770.78 2375.53,-2758.8 2369.04,-2745.89 2345.42,-2698.89 2387.48,-2547.82 2351.04,-2509.89 2289.97,-2446.32 2218.22,-2547.32 2154.04,-2486.89 2120.85,-2455.63 2151.44,-2428.8 2136.04,-2385.89 2127.37,-2361.72 2114.9,-2336.86 2102.29,-2314.65"/>
<polygon fill="black" stroke="black" points="2105.3,-2312.87 2097.27,-2305.96 2099.24,-2316.37 2105.3,-2312.87"/>
<text text-anchor="middle" x="2252.54" y="-2513.69" font-family="Times,serif" font-size="14.00">1</text>
</g>
<!-- t8&#45;&gt;s7 -->
<g id="edge91" class="edge">
<title>t8&#45;&gt;s7</title>
<path fill="none" stroke="black" d="M3326.96,-1641.63C3304.98,-1687.69 3271.63,-1739.62 3224.73,-1768.89 3218.01,-1773.08 2602.76,-1868.48 2369.04,-1830.89 2069.92,-1782.78 2026.57,-1663.49 1735.66,-1578.89 1632.38,-1548.86 1600.96,-1567.15 1496.66,-1540.89 1398.52,-1516.18 1358.24,-1532.05 1281.66,-1465.89 1248.29,-1437.07 1224.4,-1394.46 1208.27,-1356.6"/>
<polygon fill="black" stroke="black" points="1211.4,-1354.99 1204.34,-1347.09 1204.93,-1357.66 1211.4,-1354.99"/>
<text text-anchor="middle" x="2252.54" y="-1830.69" font-family="Times,serif" font-size="14.00">1</text>
</g>
<!-- t8&#45;&gt;s17 -->
<g id="edge79" class="edge">
<title>t8&#45;&gt;s17</title>
<path fill="none" stroke="black" d="M3278.81,-1456.02C3205.93,-1370.54 3100.22,-1237.95 3027.73,-1109.89 3017.12,-1091.14 3018.52,-1084.55 3009.73,-1064.89 2996.61,-1035.56 2981.21,-1003.86 2967.27,-976.04"/>
<polygon fill="black" stroke="black" points="2970.22,-974.13 2962.6,-966.77 2963.97,-977.27 2970.22,-974.13"/>
<text text-anchor="middle" x="3126.23" y="-1392.69" font-family="Times,serif" font-size="14.00">1</text>
</g>
<!-- t9&#45;&gt;s2 -->
<g id="edge3" class="edge">
<title>t9&#45;&gt;s2</title>
<path fill="none" stroke="black" d="M1520.99,-2261.55C1409.61,-2282.68 1223.29,-2299.64 1095.97,-2214.89 1080.41,-2204.53 1091.1,-2190.19 1077.97,-2176.89 1009.14,-2107.14 965.79,-2127.19 879.97,-2079.89 763.41,-2015.65 694.58,-2036.32 624.97,-1922.89 567.91,-1829.91 538.67,-1084.65 530.11,-823.72"/>
<polygon fill="black" stroke="black" points="533.6,-823.41 529.77,-813.53 526.6,-823.64 533.6,-823.41"/>
<text text-anchor="middle" x="978.97" y="-2180.69" font-family="Times,serif" font-size="14.00">1</text>
</g>
<!-- t9&#45;&gt;s12 -->
<g id="edge55" class="edge">
<title>t9&#45;&gt;s12</title>
<path fill="none" stroke="black" d="M1711.21,-2239.1C1785.96,-2239.28 1889.78,-2239.52 1963.1,-2239.68"/>
<polygon fill="black" stroke="black" points="1963.23,-2243.18 1973.24,-2239.71 1963.25,-2236.18 1963.23,-2243.18"/>
<text text-anchor="middle" x="1852.66" y="-2242.69" font-family="Times,serif" font-size="14.00">1</text>
</g>
<!-- t10&#45;&gt;s7 -->
<g id="edge29" class="edge">
<title>t10&#45;&gt;s7</title>
<path fill="none" stroke="black" d="M1521.82,-1646.79C1507.42,-1641.64 1492.68,-1636.52 1478.66,-1631.89 1391.98,-1603.29 1347.38,-1637.22 1281.66,-1573.89 1223.72,-1518.05 1199.07,-1428 1188.58,-1360.92"/>
<polygon fill="black" stroke="black" points="1192,-1360.15 1187.07,-1350.78 1185.08,-1361.18 1192,-1360.15"/>
<text text-anchor="middle" x="1380.16" y="-1635.69" font-family="Times,serif" font-size="14.00">1</text>
</g>
<!-- t10&#45;&gt;s12 -->
<g id="edge47" class="edge">
<title>t10&#45;&gt;s12</title>
<path fill="none" stroke="black" d="M1710.54,-1692.25C1786.36,-1705.65 1890.41,-1736.24 1951.66,-1805.89 1996.16,-1856.5 2026.51,-2039.4 2041.35,-2150.97"/>
<polygon fill="black" stroke="black" points="2037.92,-2151.75 2042.69,-2161.21 2044.86,-2150.84 2037.92,-2151.75"/>
<text text-anchor="middle" x="1852.66" y="-1809.69" font-family="Times,serif" font-size="14.00">1</text>
</g>
<!-- t11&#45;&gt;s2 -->
<g id="edge9" class="edge">
<title>t11&#45;&gt;s2</title>
<path fill="none" stroke="black" d="M2394.25,-694.47C2306.56,-705.19 2171.55,-718.89 2053.85,-718.89 756.47,-718.89 756.47,-718.89 756.47,-718.89 709.88,-718.89 658.08,-722.02 615.54,-725.41"/>
<polygon fill="black" stroke="black" points="615.18,-721.93 605.49,-726.23 615.75,-728.91 615.18,-721.93"/>
<text text-anchor="middle" x="1380.16" y="-722.69" font-family="Times,serif" font-size="14.00">1</text>
</g>
<!-- t11&#45;&gt;s17 -->
<g id="edge15" class="edge">
<title>t11&#45;&gt;s17</title>
<path fill="none" stroke="black" d="M2582.67,-728.09C2661.23,-767.08 2772.43,-822.25 2846.51,-859"/>
<polygon fill="black" stroke="black" points="2845.29,-862.3 2855.8,-863.61 2848.4,-856.03 2845.29,-862.3"/>
<text text-anchor="middle" x="2725.04" y="-848.69" font-family="Times,serif" font-size="14.00">1</text>
</g>
<!-- t12&#45;&gt;s7 -->
<g id="edge43" class="edge">
<title>t12&#45;&gt;s7</title>
<path fill="none" stroke="black" d="M2395.76,-889.71C2292.16,-893.28 2118.64,-900.37 1969.66,-911.89 1873.4,-919.33 1831.32,-877.54 1753.66,-934.89 1737.32,-946.95 1751.52,-964.21 1735.66,-976.89 1575.38,-1105.03 1444.41,-935.91 1281.66,-1060.89 1241.3,-1091.88 1216.32,-1143.06 1201.32,-1187.37"/>
<polygon fill="black" stroke="black" points="1197.95,-1186.41 1198.18,-1197 1204.61,-1188.58 1197.95,-1186.41"/>
<text text-anchor="middle" x="1852.66" y="-938.69" font-family="Times,serif" font-size="14.00">1</text>
</g>
<!-- t12&#45;&gt;s17 -->
<g id="edge10" class="edge">
<title>t12&#45;&gt;s17</title>
<path fill="none" stroke="black" d="M2581.07,-889.2C2656.58,-891.11 2763.01,-893.8 2837.38,-895.68"/>
<polygon fill="black" stroke="black" points="2837.58,-899.18 2847.66,-895.94 2837.75,-892.19 2837.58,-899.18"/>
<text text-anchor="middle" x="2725.04" y="-898.69" font-family="Times,serif" font-size="14.00">1</text>
</g>
<!-- t13&#45;&gt;s12 -->
<g id="edge19" class="edge">
<title>t13&#45;&gt;s12</title>
<path fill="none" stroke="black" d="M2393.27,-2107.18C2379.2,-2110.81 2364.8,-2114.19 2351.04,-2116.89 2264.54,-2133.87 2233.4,-2101.52 2154.04,-2139.89 2138.23,-2147.53 2123.43,-2158.71 2110.32,-2170.84"/>
<polygon fill="black" stroke="black" points="2107.58,-2168.62 2102.8,-2178.07 2112.44,-2173.66 2107.58,-2168.62"/>
<text text-anchor="middle" x="2252.54" y="-2143.69" font-family="Times,serif" font-size="14.00">2</text>
</g>
<!-- t14&#45;&gt;s12 -->
<g id="edge101" class="edge">
<title>t14&#45;&gt;s12</title>
<path fill="none" stroke="black" d="M3268.14,-1955.18C3253.64,-1960.2 3238.8,-1965.25 3224.73,-1969.89 2960.33,-2056.97 2846.5,-1983.94 2626.04,-2153.89 2614.03,-2163.15 2620.9,-2174.84 2608.04,-2182.89 2588.6,-2195.05 2293.84,-2220.47 2142.33,-2232.84"/>
<polygon fill="black" stroke="black" points="2141.81,-2229.37 2132.12,-2233.67 2142.37,-2236.34 2141.81,-2229.37"/>
<text text-anchor="middle" x="2725.04" y="-2157.69" font-family="Times,serif" font-size="14.00">1</text>
</g>
<!-- t14&#45;&gt;s17 -->
<g id="edge103" class="edge">
<title>t14&#45;&gt;s17</title>
<path fill="none" stroke="black" d="M3268,-1906.85C3189.33,-1888.75 3081.22,-1849.98 3027.73,-1768.89 3006.18,-1736.23 3019.14,-1102.86 3009.73,-1064.89 3001.89,-1033.28 2987.42,-1000.73 2972.74,-972.85"/>
<polygon fill="black" stroke="black" points="2975.78,-971.12 2967.97,-963.97 2969.62,-974.43 2975.78,-971.12"/>
<text text-anchor="middle" x="3126.23" y="-1896.69" font-family="Times,serif" font-size="14.00">1</text>
</g>
<!-- t15&#45;&gt;s12 -->
<g id="edge39" class="edge">
<title>t15&#45;&gt;s12</title>
<path fill="none" stroke="black" d="M2394.51,-1752.97C2384.49,-1764.29 2375.58,-1776.66 2369.04,-1789.89 2348.57,-1831.28 2379.53,-1960.55 2351.04,-1996.89 2293.99,-2069.67 2225.33,-2004.98 2154.04,-2063.89 2124.56,-2088.25 2102.04,-2123.68 2085.89,-2156.38"/>
<polygon fill="black" stroke="black" points="2082.68,-2154.99 2081.51,-2165.52 2088.99,-2158.02 2082.68,-2154.99"/>
<text text-anchor="middle" x="2252.54" y="-2067.69" font-family="Times,serif" font-size="14.00">1</text>
</g>
<!-- t15&#45;&gt;s17 -->
<g id="edge61" class="edge">
<title>t15&#45;&gt;s17</title>
<path fill="none" stroke="black" d="M2582.81,-1615.17C2592.87,-1604.18 2601.72,-1592.03 2608.04,-1578.89 2649.88,-1491.9 2576.63,-1227.81 2626.04,-1144.89 2678.48,-1056.89 2747.19,-1094.62 2824.04,-1026.89 2842.69,-1010.45 2860.37,-990.19 2875.56,-970.64"/>
<polygon fill="black" stroke="black" points="2878.4,-972.68 2881.69,-962.61 2872.84,-968.43 2878.4,-972.68"/>
<text text-anchor="middle" x="2725.04" y="-1148.69" font-family="Times,serif" font-size="14.00">1</text>
</g>
<!-- t16&#45;&gt;s17 -->
<g id="edge17" class="edge">
<title>t16&#45;&gt;s17</title>
<path fill="none" stroke="black" d="M3269.56,-988.87C3254.6,-985.43 3239.25,-981.99 3224.73,-978.89 3137.52,-960.26 3113,-966.97 3027.73,-940.89 3020.78,-938.76 3013.67,-936.32 3006.59,-933.69"/>
<polygon fill="black" stroke="black" points="3007.56,-930.32 2996.97,-930.02 3005.06,-936.86 3007.56,-930.32"/>
<text text-anchor="middle" x="3126.23" y="-982.69" font-family="Times,serif" font-size="14.00">2</text>
</g>
<!-- t17&#45;&gt;s3 -->
<g id="edge30" class="edge">
<title>t17&#45;&gt;s3</title>
<path fill="none" stroke="black" d="M1078.01,-623.76C1222.34,-648.91 1500.34,-687.34 1735.66,-660.89 1813.46,-652.14 1900.03,-631.65 1962.9,-614.76"/>
<polygon fill="black" stroke="black" points="1964.04,-618.08 1972.78,-612.08 1962.21,-611.32 1964.04,-618.08"/>
<text text-anchor="middle" x="1380.16" y="-671.69" font-family="Times,serif" font-size="14.00">1</text>
</g>
<!-- t18&#45;&gt;s4 -->
<g id="edge11" class="edge">
<title>t18&#45;&gt;s4</title>
<path fill="none" stroke="black" d="M862.06,-483.68C868.11,-482.97 874.11,-482.37 879.97,-481.89 967.68,-474.72 989.99,-480.14 1077.97,-481.89 1080.54,-481.94 1083.14,-482 1085.77,-482.06"/>
<polygon fill="black" stroke="black" points="1085.91,-485.57 1096,-482.34 1086.1,-478.57 1085.91,-485.57"/>
<text text-anchor="middle" x="978.97" y="-485.69" font-family="Times,serif" font-size="14.00">1</text>
</g>
<!-- t19&#45;&gt;s3 -->
<g id="edge68" class="edge">
<title>t19&#45;&gt;s3</title>
<path fill="none" stroke="black" d="M1735.94,-548.19C1806.45,-557.27 1894.52,-568.62 1959.74,-577.02"/>
<polygon fill="black" stroke="black" points="1959.64,-580.54 1970.01,-578.35 1960.54,-573.6 1959.64,-580.54"/>
<text text-anchor="middle" x="1852.66" y="-579.69" font-family="Times,serif" font-size="14.00">1</text>
</g>
<!-- t20&#45;&gt;s5 -->
<g id="edge70" class="edge">
<title>t20&#45;&gt;s5</title>
<path fill="none" stroke="black" d="M1478.96,-141.09C1484.72,-137.96 1490.63,-135.19 1496.66,-132.89 1657.06,-71.76 1858.15,-140.79 1968.97,-190.37"/>
<polygon fill="black" stroke="black" points="1967.55,-193.57 1978.1,-194.51 1970.43,-187.19 1967.55,-193.57"/>
<text text-anchor="middle" x="1616.16" y="-136.69" font-family="Times,serif" font-size="14.00">1</text>
</g>
<!-- t21&#45;&gt;s5 -->
<g id="edge31" class="edge">
<title>t21&#45;&gt;s5</title>
<path fill="none" stroke="black" d="M1735.36,-263.92C1805.88,-256.79 1894.12,-247.85 1959.5,-241.24"/>
<polygon fill="black" stroke="black" points="1960.19,-244.68 1969.79,-240.19 1959.49,-237.72 1960.19,-244.68"/>
<text text-anchor="middle" x="1852.66" y="-265.69" font-family="Times,serif" font-size="14.00">1</text>
</g>
<!-- t22&#45;&gt;s8 -->
<g id="edge88" class="edge">
<title>t22&#45;&gt;s8</title>
<path fill="none" stroke="black" d="M1951.96,-1088.77C1957.91,-1089.99 1963.84,-1091.05 1969.66,-1091.89 2042.86,-1102.4 2062.21,-1096 2136.04,-1091.89 2288.86,-1083.39 2681.78,-1003.43 2824.04,-1059.89 2839.04,-1065.84 2853.1,-1075.19 2865.69,-1085.76"/>
<polygon fill="black" stroke="black" points="2863.5,-1088.5 2873.33,-1092.48 2868.13,-1083.25 2863.5,-1088.5"/>
<text text-anchor="middle" x="2252.54" y="-1093.69" font-family="Times,serif" font-size="14.00">1</text>
</g>
<!-- t23&#45;&gt;s9 -->
<g id="edge24" class="edge">
<title>t23&#45;&gt;s9</title>
<path fill="none" stroke="black" d="M1720.72,-1183.8C1793.72,-1192.2 1890.57,-1203.34 1960.66,-1211.4"/>
<polygon fill="black" stroke="black" points="1960.46,-1214.9 1970.8,-1212.57 1961.26,-1207.95 1960.46,-1214.9"/>
<text text-anchor="middle" x="1852.66" y="-1212.69" font-family="Times,serif" font-size="14.00">1</text>
</g>
<!-- t24&#45;&gt;s8 -->
<g id="edge95" class="edge">
<title>t24&#45;&gt;s8</title>
<path fill="none" stroke="black" d="M2608.21,-1183.26C2679.55,-1176.87 2768.91,-1168.86 2834.5,-1162.99"/>
<polygon fill="black" stroke="black" points="2835.17,-1166.44 2844.82,-1162.06 2834.55,-1159.47 2835.17,-1166.44"/>
<text text-anchor="middle" x="2725.04" y="-1184.69" font-family="Times,serif" font-size="14.00">1</text>
</g>
<!-- t25&#45;&gt;s10 -->
<g id="edge54" class="edge">
<title>t25&#45;&gt;s10</title>
<path fill="none" stroke="black" d="M2334.36,-1750.44C2350.11,-1768.41 2363.48,-1782.35 2369.04,-1784.89 2465.69,-1828.96 2505.54,-1812.75 2608.04,-1784.89 2700.23,-1759.83 2793,-1700.42 2854.12,-1655.44"/>
<polygon fill="black" stroke="black" points="2856.21,-1658.25 2862.15,-1649.47 2852.04,-1652.63 2856.21,-1658.25"/>
<text text-anchor="middle" x="2488.54" y="-1815.69" font-family="Times,serif" font-size="14.00">1</text>
</g>
<!-- t26&#45;&gt;s10 -->
<g id="edge82" class="edge">
<title>t26&#45;&gt;s10</title>
<path fill="none" stroke="black" d="M2607.64,-1491.04C2680.72,-1515.88 2772.88,-1547.21 2839.02,-1569.7"/>
<polygon fill="black" stroke="black" points="2837.98,-1573.04 2848.58,-1572.95 2840.24,-1566.42 2837.98,-1573.04"/>
<text text-anchor="middle" x="2725.04" y="-1566.69" font-family="Times,serif" font-size="14.00">1</text>
</g>
<!-- t27&#45;&gt;s6 -->
<g id="edge92" class="edge">
<title>t27&#45;&gt;s6</title>
<path fill="none" stroke="black" d="M351.82,-1687.4C390.84,-1763.27 446.29,-1871.1 483.94,-1944.31"/>
<polygon fill="black" stroke="black" points="480.98,-1946.22 488.67,-1953.51 487.21,-1943.01 480.98,-1946.22"/>
<text text-anchor="middle" x="422.79" y="-1827.69" font-family="Times,serif" font-size="14.00">1</text>
</g>
<!-- t28&#45;&gt;s13 -->
<g id="edge4" class="edge">
<title>t28&#45;&gt;s13</title>
<path fill="none" stroke="black" d="M2824.04,-2268.76C2927.9,-2260.59 3096.74,-2248.55 3242.73,-2243.89 3348.89,-2240.5 3375.54,-2241.04 3481.73,-2243.89 3557.08,-2245.91 3642.42,-2250.65 3705.43,-2254.6"/>
<polygon fill="black" stroke="black" points="3705.54,-2258.12 3715.75,-2255.26 3705.99,-2251.13 3705.54,-2258.12"/>
<text text-anchor="middle" x="3126.23" y="-2257.69" font-family="Times,serif" font-size="14.00">1</text>
</g>
<!-- t29&#45;&gt;s14 -->
<g id="edge16" class="edge">
<title>t29&#45;&gt;s14</title>
<path fill="none" stroke="black" d="M2593.26,-2379.08C2665.77,-2383.41 2761.78,-2389.15 2831.83,-2393.33"/>
<polygon fill="black" stroke="black" points="2831.78,-2396.83 2841.97,-2393.94 2832.19,-2389.85 2831.78,-2396.83"/>
<text text-anchor="middle" x="2725.04" y="-2395.69" font-family="Times,serif" font-size="14.00">1</text>
</g>
<!-- t30&#45;&gt;s13 -->
<g id="edge66" class="edge">
<title>t30&#45;&gt;s13</title>
<path fill="none" stroke="black" d="M3482.01,-2341.56C3553.38,-2323.33 3642.74,-2300.51 3708.19,-2283.8"/>
<polygon fill="black" stroke="black" points="3709.26,-2287.14 3718.08,-2281.28 3707.52,-2280.36 3709.26,-2287.14"/>
<text text-anchor="middle" x="3598.73" y="-2339.69" font-family="Times,serif" font-size="14.00">1</text>
</g>
<!-- t31&#45;&gt;s15 -->
<g id="edge78" class="edge">
<title>t31&#45;&gt;s15</title>
<path fill="none" stroke="black" d="M3224.81,-2749.17C3230.67,-2752.14 3236.66,-2754.75 3242.73,-2756.89 3399,-2811.99 3595.59,-2784.57 3707.99,-2760.58"/>
<polygon fill="black" stroke="black" points="3708.9,-2763.96 3717.93,-2758.42 3707.42,-2757.12 3708.9,-2763.96"/>
<text text-anchor="middle" x="3362.23" y="-2792.69" font-family="Times,serif" font-size="14.00">1</text>
</g>
<!-- t32&#45;&gt;s15 -->
<g id="edge60" class="edge">
<title>t32&#45;&gt;s15</title>
<path fill="none" stroke="black" d="M3481.43,-2658.53C3552.82,-2676.43 3642.35,-2698.88 3707.96,-2715.33"/>
<polygon fill="black" stroke="black" points="3707.32,-2718.78 3717.87,-2717.82 3709.02,-2711.99 3707.32,-2718.78"/>
<text text-anchor="middle" x="3598.73" y="-2714.69" font-family="Times,serif" font-size="14.00">1</text>
</g>
<!-- t33&#45;&gt;s18 -->
<g id="edge87" class="edge">
<title>t33&#45;&gt;s18</title>
<path fill="none" stroke="black" d="M3698.03,-521.89C3842.34,-513.14 4119.84,-502.12 4354.11,-526.89 4366.51,-528.2 4379.48,-530.22 4392.19,-532.57"/>
<polygon fill="black" stroke="black" points="4391.83,-536.06 4402.31,-534.52 4393.16,-529.19 4391.83,-536.06"/>
<text text-anchor="middle" x="3998.61" y="-517.69" font-family="Times,serif" font-size="14.00">1</text>
</g>
<!-- t34&#45;&gt;s19 -->
<g id="edge100" class="edge">
<title>t34&#45;&gt;s19</title>
<path fill="none" stroke="black" d="M3466.79,-743.89C3539.56,-743.89 3636.01,-743.89 3706.04,-743.89"/>
<polygon fill="black" stroke="black" points="3706.17,-747.39 3716.17,-743.89 3706.17,-740.39 3706.17,-747.39"/>
<text text-anchor="middle" x="3598.73" y="-747.69" font-family="Times,serif" font-size="14.00">1</text>
</g>
<!-- t35&#45;&gt;s18 -->
<g id="edge5" class="edge">
<title>t35&#45;&gt;s18</title>
<path fill="none" stroke="black" d="M4354.4,-606.38C4368.75,-600.4 4383.16,-594.4 4396.85,-588.69"/>
<polygon fill="black" stroke="black" points="4398.32,-591.87 4406.2,-584.79 4395.63,-585.41 4398.32,-591.87"/>
<text text-anchor="middle" x="4377.11" y="-602.69" font-family="Times,serif" font-size="14.00">1</text>
</g>
<!-- t36&#45;&gt;s20 -->
<g id="edge50" class="edge">
<title>t36&#45;&gt;s20</title>
<path fill="none" stroke="black" d="M4097.15,-1036.65C4103.16,-1038.31 4109.18,-1039.75 4115.11,-1040.89 4208.02,-1058.71 4316.5,-1049.35 4390.96,-1038.41"/>
<polygon fill="black" stroke="black" points="4391.87,-1041.82 4401.23,-1036.86 4390.82,-1034.89 4391.87,-1041.82"/>
<text text-anchor="middle" x="4234.61" y="-1053.69" font-family="Times,serif" font-size="14.00">1</text>
</g>
<!-- t37&#45;&gt;s20 -->
<g id="edge99" class="edge">
<title>t37&#45;&gt;s20</title>
<path fill="none" stroke="black" d="M4353.68,-965.47C4368.52,-972.08 4383.45,-978.73 4397.58,-985.02"/>
<polygon fill="black" stroke="black" points="4396.19,-988.24 4406.75,-989.11 4399.04,-981.84 4396.19,-988.24"/>
<text text-anchor="middle" x="4377.11" y="-980.69" font-family="Times,serif" font-size="14.00">1</text>
</g>
<!-- t38&#45;&gt;s16 -->
<g id="edge80" class="edge">
<title>t38&#45;&gt;s16</title>
<path fill="none" stroke="black" d="M1705.67,-1894.83C1783.24,-1898.93 1892.56,-1890.29 1951.66,-1820.89 1976.55,-1791.65 1958.37,-1166.59 1969.66,-1129.89 1975.7,-1110.26 1985.65,-1090.74 1996.59,-1073.08"/>
<polygon fill="black" stroke="black" points="1999.59,-1074.88 2002.02,-1064.57 1993.69,-1071.11 1999.59,-1074.88"/>
<text text-anchor="middle" x="1852.66" y="-1898.69" font-family="Times,serif" font-size="14.00">1</text>
</g>
</g>
</svg>
